<svg xmlns="http://www.w3.org/2000/svg" width="1600" height="920" viewBox="0 0 1600 920" role="img" aria-labelledby="title desc">
  <title id="title">Customs Brain dashboard</title>
  <desc id="desc">Representative operations dashboard with worker metrics, queue activity, and recent jobs.</desc>
  <rect width="1600" height="920" fill="#f4efe4"/>
  <circle cx="200" cy="90" r="170" fill="#f7d9c9" opacity="0.45"/>
  <circle cx="1390" cy="120" r="180" fill="#d8e4ef" opacity="0.45"/>
  <text x="110" y="80" fill="#8d3f18" font-size="18" font-family="Segoe UI, Arial, sans-serif" letter-spacing="4">CUSTOMS BRAIN</text>
  <text x="110" y="145" fill="#14213d" font-size="60" font-family="Georgia, serif" font-weight="700">Operations Dashboard</text>
  <text x="110" y="188" fill="#4f5d75" font-size="24" font-family="Segoe UI, Arial, sans-serif">Track jobs, inspect worker fleet activity, and reopen finished customs reports.</text>
  <rect x="1160" y="86" width="130" height="44" rx="22" fill="#14213d"/>
  <text x="1190" y="115" fill="#ffffff" font-size="20" font-family="Segoe UI, Arial, sans-serif">Dashboard</text>
  <rect x="1306" y="86" width="116" height="44" rx="22" fill="#ffffff" stroke="#d6d0c4"/>
  <text x="1337" y="115" fill="#4f5d75" font-size="20" font-family="Segoe UI, Arial, sans-serif">New Job</text>
  <rect x="1436" y="86" width="100" height="44" rx="22" fill="#ffffff" stroke="#d6d0c4"/>
  <text x="1468" y="115" fill="#4f5d75" font-size="20" font-family="Segoe UI, Arial, sans-serif">Logout</text>
  <rect x="110" y="232" width="1380" height="120" rx="28" fill="#fffaf2" stroke="#e3dacd"/>
  <g font-family="Segoe UI, Arial, sans-serif">
    <rect x="150" y="264" width="180" height="58" rx="20" fill="#ffffff" stroke="#e1d9ce"/>
    <text x="176" y="289" fill="#7b8798" font-size="16">RECENT JOBS</text>
    <text x="184" y="319" fill="#14213d" font-size="34" font-weight="700">12</text>
    <rect x="356" y="264" width="180" height="58" rx="20" fill="#ffffff" stroke="#e1d9ce"/>
    <text x="384" y="289" fill="#7b8798" font-size="16">COMPLETED</text>
    <text x="392" y="319" fill="#14213d" font-size="34" font-weight="700">7</text>
    <rect x="562" y="264" width="180" height="58" rx="20" fill="#ffffff" stroke="#e1d9ce"/>
    <text x="590" y="289" fill="#7b8798" font-size="16">IN PROGRESS</text>
    <text x="598" y="319" fill="#14213d" font-size="34" font-weight="700">3</text>
    <rect x="768" y="264" width="180" height="58" rx="20" fill="#ffffff" stroke="#e1d9ce"/>
    <text x="818" y="289" fill="#7b8798" font-size="16">FAILED</text>
    <text x="826" y="319" fill="#14213d" font-size="34" font-weight="700">2</text>
    <rect x="974" y="264" width="180" height="58" rx="20" fill="#ffffff" stroke="#e1d9ce"/>
    <text x="996" y="289" fill="#7b8798" font-size="16">ACTIVE WORKERS</text>
    <text x="1038" y="319" fill="#14213d" font-size="34" font-weight="700">2</text>
    <rect x="1180" y="264" width="180" height="58" rx="20" fill="#ffffff" stroke="#e1d9ce"/>
    <text x="1206" y="289" fill="#7b8798" font-size="16">BUSY WORKERS</text>
    <text x="1248" y="319" fill="#14213d" font-size="34" font-weight="700">2</text>
  </g>
  <rect x="110" y="386" width="650" height="200" rx="28" fill="#fffaf2" stroke="#e3dacd"/>
  <text x="150" y="430" fill="#8d3f18" font-size="18" font-family="Segoe UI, Arial, sans-serif" letter-spacing="4">WORKER FLEET</text>
  <text x="150" y="472" fill="#14213d" font-size="38" font-family="Georgia, serif" font-weight="700">Parallel execution status</text>
  <rect x="150" y="500" width="150" height="40" rx="20" fill="#284f3b"/>
  <text x="190" y="527" fill="#dcf5e5" font-size="20" font-family="Segoe UI, Arial, sans-serif">Parallel Live</text>
  <rect x="318" y="500" width="130" height="40" rx="20" fill="#253756"/>
  <text x="350" y="527" fill="#d7deec" font-size="20" font-family="Segoe UI, Arial, sans-serif">Queue 2</text>
  <rect x="466" y="500" width="160" height="40" rx="20" fill="#253756"/>
  <text x="500" y="527" fill="#d7deec" font-size="20" font-family="Segoe UI, Arial, sans-serif">Completed 9</text>
  <rect x="150" y="552" width="270" height="28" rx="14" fill="#ffffff" stroke="#ddd6ca"/>
  <text x="176" y="572" fill="#14213d" font-size="18" font-family="Segoe UI, Arial, sans-serif" font-weight="700">worker-a</text>
  <rect x="178" y="596" width="250" height="116" rx="22" fill="#edf7f0" stroke="#d4e6da"/>
  <text x="204" y="632" fill="#14213d" font-size="26" font-family="Segoe UI, Arial, sans-serif" font-weight="700">worker-a</text>
  <text x="204" y="668" fill="#4f5d75" font-size="20" font-family="Segoe UI, Arial, sans-serif">Status: busy</text>
  <text x="204" y="700" fill="#4f5d75" font-size="20" font-family="Segoe UI, Arial, sans-serif">Current job: 62bad92a-...</text>
  <rect x="454" y="596" width="250" height="116" rx="22" fill="#edf7f0" stroke="#d4e6da"/>
  <text x="480" y="632" fill="#14213d" font-size="26" font-family="Segoe UI, Arial, sans-serif" font-weight="700">worker-b</text>
  <text x="480" y="668" fill="#4f5d75" font-size="20" font-family="Segoe UI, Arial, sans-serif">Status: busy</text>
  <text x="480" y="700" fill="#4f5d75" font-size="20" font-family="Segoe UI, Arial, sans-serif">Current job: 557f87d2-...</text>
  <rect x="790" y="386" width="700" height="200" rx="28" fill="#fffaf2" stroke="#e3dacd"/>
  <text x="830" y="430" fill="#8d3f18" font-size="18" font-family="Segoe UI, Arial, sans-serif" letter-spacing="4">WORKER EVENTS</text>
  <text x="830" y="472" fill="#14213d" font-size="38" font-family="Georgia, serif" font-weight="700">Recent queue activity</text>
  <rect x="830" y="510" width="620" height="50" rx="18" fill="#ffffff" stroke="#ddd6ca"/>
  <text x="860" y="540" fill="#14213d" font-size="22" font-family="Segoe UI, Arial, sans-serif" font-weight="700">worker-a</text>
  <text x="990" y="540" fill="#4f5d75" font-size="20" font-family="Segoe UI, Arial, sans-serif">picked job d584fe25-...</text>
  <text x="1360" y="540" fill="#4f5d75" font-size="18" font-family="Segoe UI, Arial, sans-serif">10:31:05</text>
  <rect x="830" y="572" width="620" height="50" rx="18" fill="#ffffff" stroke="#ddd6ca"/>
  <text x="860" y="602" fill="#14213d" font-size="22" font-family="Segoe UI, Arial, sans-serif" font-weight="700">worker-b</text>
  <text x="990" y="602" fill="#4f5d75" font-size="20" font-family="Segoe UI, Arial, sans-serif">picked job 8bf8507a-...</text>
  <text x="1360" y="602" fill="#4f5d75" font-size="18" font-family="Segoe UI, Arial, sans-serif">10:31:06</text>
  <rect x="110" y="622" width="1380" height="210" rx="28" fill="#fffaf2" stroke="#e3dacd"/>
  <text x="150" y="666" fill="#8d3f18" font-size="18" font-family="Segoe UI, Arial, sans-serif" letter-spacing="4">RECENT ACTIVITY</text>
  <text x="150" y="708" fill="#14213d" font-size="38" font-family="Georgia, serif" font-weight="700">Recent jobs</text>
  <rect x="150" y="730" width="1300" height="60" rx="18" fill="#ffffff" stroke="#ddd6ca"/>
  <text x="184" y="766" fill="#14213d" font-size="24" font-family="Segoe UI, Arial, sans-serif" font-weight="700">8bf8507a-6a49-40e4-b498-b279cfe24fa1</text>
  <rect x="1190" y="742" width="110" height="34" rx="17" fill="#dcf5e5"/>
  <text x="1218" y="764" fill="#284f3b" font-size="18" font-family="Segoe UI, Arial, sans-serif">completed</text>
  <rect x="1318" y="736" width="110" height="46" rx="23" fill="#eef1f5"/>
  <text x="1340" y="765" fill="#4f5d75" font-size="20" font-family="Segoe UI, Arial, sans-serif">Open</text>
</svg>
