<svg xmlns="http://www.w3.org/2000/svg" width="1600" height="960" viewBox="0 0 1600 960" role="img" aria-labelledby="title desc">
  <title id="title">Customs Brain results screen</title>
  <desc id="desc">Representative result view with recommended world, scenario lab, rival cards, and comparison table.</desc>
  <rect width="1600" height="960" fill="#f4efe4"/>
  <circle cx="200" cy="100" r="170" fill="#f7d9c9" opacity="0.45"/>
  <circle cx="1450" cy="130" r="180" fill="#d9e1ef" opacity="0.45"/>
  <text x="110" y="78" fill="#8d3f18" font-size="18" font-family="Segoe UI, Arial, sans-serif" letter-spacing="4">CUSTOMS BRAIN</text>
  <text x="110" y="142" fill="#14213d" font-size="56" font-family="Georgia, serif" font-weight="700">Job 3ob1883e-ec5e-4da1-8367-f1bd2f75ccb6</text>
  <text x="110" y="182" fill="#4f5d75" font-size="24" font-family="Segoe UI, Arial, sans-serif">Completed result with official winner, scenario re-ranking, rival inspection, and report download.</text>
  <rect x="110" y="218" width="1380" height="110" rx="28" fill="#fffaf2" stroke="#e3dacd"/>
  <text x="150" y="258" fill="#8d3f18" font-size="18" font-family="Segoe UI, Arial, sans-serif" letter-spacing="4">JOB STATUS</text>
  <text x="150" y="300" fill="#14213d" font-size="36" font-family="Georgia, serif" font-weight="700">completed</text>
  <rect x="1320" y="250" width="100" height="36" rx="18" fill="#dcf5e5"/>
  <text x="1343" y="274" fill="#284f3b" font-size="18" font-family="Segoe UI, Arial, sans-serif">completed</text>
  <rect x="1294" y="292" width="126" height="44" rx="22" fill="#eef1f5"/>
  <text x="1325" y="320" fill="#4f5d75" font-size="20" font-family="Segoe UI, Arial, sans-serif">New Upload</text>
  <rect x="110" y="360" width="680" height="230" rx="28" fill="#fffaf2" stroke="#e3dacd"/>
  <text x="150" y="400" fill="#8d3f18" font-size="18" font-family="Segoe UI, Arial, sans-serif" letter-spacing="4">RECOMMENDED WORLD</text>
  <text x="150" y="442" fill="#14213d" font-size="42" font-family="Georgia, serif" font-weight="700">World A - Baseline classification</text>
  <text x="150" y="484" fill="#4f5d75" font-size="22" font-family="Segoe UI, Arial, sans-serif">Selected because it best balances compliance, confidence, cost, and operational simplicity.</text>
  <rect x="150" y="518" width="140" height="90" rx="18" fill="#ffffff" stroke="#ddd6ca"/>
  <text x="176" y="548" fill="#7b8798" font-size="16" font-family="Segoe UI, Arial, sans-serif">HS CODE</text>
  <text x="178" y="588" fill="#14213d" font-size="42" font-family="Segoe UI, Arial, sans-serif" font-weight="700">620443</text>
  <rect x="308" y="518" width="140" height="90" rx="18" fill="#ffffff" stroke="#ddd6ca"/>
  <text x="332" y="548" fill="#7b8798" font-size="16" font-family="Segoe UI, Arial, sans-serif">DUTY RATE</text>
  <text x="335" y="588" fill="#14213d" font-size="42" font-family="Segoe UI, Arial, sans-serif" font-weight="700">18%</text>
  <rect x="466" y="518" width="160" height="90" rx="18" fill="#ffffff" stroke="#ddd6ca"/>
  <text x="492" y="548" fill="#7b8798" font-size="16" font-family="Segoe UI, Arial, sans-serif">DUTY USD</text>
  <text x="495" y="588" fill="#14213d" font-size="42" font-family="Segoe UI, Arial, sans-serif" font-weight="700">$8171</text>
  <rect x="644" y="518" width="110" height="90" rx="18" fill="#ffffff" stroke="#ddd6ca"/>
  <text x="664" y="548" fill="#7b8798" font-size="16" font-family="Segoe UI, Arial, sans-serif">RISK</text>
  <text x="678" y="588" fill="#14213d" font-size="42" font-family="Segoe UI, Arial, sans-serif" font-weight="700">0.75</text>
  <rect x="820" y="360" width="670" height="230" rx="28" fill="#fffaf2" stroke="#e3dacd"/>
  <text x="860" y="400" fill="#8d3f18" font-size="18" font-family="Segoe UI, Arial, sans-serif" letter-spacing="4">SCENARIO LAB</text>
  <text x="860" y="442" fill="#14213d" font-size="42" font-family="Georgia, serif" font-weight="700">Re-rank worlds under pressure</text>
  <rect x="860" y="482" width="280" height="36" rx="18" fill="#ffffff" stroke="#ddd6ca"/>
  <text x="888" y="506" fill="#14213d" font-size="20" font-family="Segoe UI, Arial, sans-serif" font-weight="700">Duty savings</text>
  <line x1="890" y1="534" x2="1110" y2="534" stroke="#b35c2e" stroke-width="8" stroke-linecap="round"/>
  <circle cx="1050" cy="534" r="14" fill="#ffffff" stroke="#14213d" stroke-width="4"/>
  <rect x="860" y="560" width="280" height="36" rx="18" fill="#ffffff" stroke="#ddd6ca"/>
  <text x="888" y="584" fill="#14213d" font-size="20" font-family="Segoe UI, Arial, sans-serif" font-weight="700">Compliance strictness</text>
  <line x1="890" y1="612" x2="1110" y2="612" stroke="#14213d" stroke-width="8" stroke-linecap="round"/>
  <circle cx="1086" cy="612" r="14" fill="#ffffff" stroke="#14213d" stroke-width="4"/>
  <rect x="1180" y="482" width="270" height="108" rx="24" fill="#14213d"/>
  <text x="1212" y="520" fill="#f2d6c6" font-size="18" font-family="Segoe UI, Arial, sans-serif" letter-spacing="3">CURRENT LEADER</text>
  <text x="1212" y="560" fill="#ffffff" font-size="30" font-family="Georgia, serif" font-weight="700">World A remains ahead</text>
  <text x="1212" y="592" fill="#d7deec" font-size="18" font-family="Segoe UI, Arial, sans-serif">Scenario fit 84 / 100</text>
  <rect x="110" y="620" width="820" height="190" rx="28" fill="#fffaf2" stroke="#e3dacd"/>
  <text x="150" y="660" fill="#8d3f18" font-size="18" font-family="Segoe UI, Arial, sans-serif" letter-spacing="4">RIVAL CARDS</text>
  <text x="150" y="700" fill="#14213d" font-size="40" font-family="Georgia, serif" font-weight="700">Challenge the official winner</text>
  <rect x="150" y="730" width="220" height="60" rx="18" fill="#ffffff" stroke="#ddd6ca"/>
  <text x="176" y="756" fill="#14213d" font-size="22" font-family="Segoe UI, Arial, sans-serif" font-weight="700">World B</text>
  <text x="176" y="780" fill="#4f5d75" font-size="18" font-family="Segoe UI, Arial, sans-serif">Lower duty, still non-compliant</text>
  <rect x="394" y="730" width="220" height="60" rx="18" fill="#ffffff" stroke="#ddd6ca"/>
  <text x="420" y="756" fill="#14213d" font-size="22" font-family="Segoe UI, Arial, sans-serif" font-weight="700">World C</text>
  <text x="420" y="780" fill="#4f5d75" font-size="18" font-family="Segoe UI, Arial, sans-serif">Weaker confidence, smaller upside</text>
  <rect x="638" y="730" width="240" height="60" rx="18" fill="#f9eee8" stroke="#e0c7b8"/>
  <text x="664" y="756" fill="#14213d" font-size="22" font-family="Segoe UI, Arial, sans-serif" font-weight="700">World D</text>
  <text x="664" y="780" fill="#4f5d75" font-size="18" font-family="Segoe UI, Arial, sans-serif">Can upset if cost dominates</text>
  <rect x="960" y="620" width="530" height="190" rx="28" fill="#fffaf2" stroke="#e3dacd"/>
  <text x="1000" y="660" fill="#8d3f18" font-size="18" font-family="Segoe UI, Arial, sans-serif" letter-spacing="4">PINNED INSPECTOR</text>
  <text x="1000" y="700" fill="#14213d" font-size="40" font-family="Georgia, serif" font-weight="700">Why the rival lost</text>
  <rect x="1000" y="724" width="210" height="60" rx="18" fill="#ffffff" stroke="#ddd6ca"/>
  <text x="1024" y="750" fill="#14213d" font-size="20" font-family="Segoe UI, Arial, sans-serif" font-weight="700">Compliance signals</text>
  <text x="1024" y="774" fill="#4f5d75" font-size="16" font-family="Segoe UI, Arial, sans-serif">Violation and warning list</text>
  <rect x="1234" y="724" width="210" height="60" rx="18" fill="#ffffff" stroke="#ddd6ca"/>
  <text x="1258" y="750" fill="#14213d" font-size="20" font-family="Segoe UI, Arial, sans-serif" font-weight="700">Duty path</text>
  <text x="1258" y="774" fill="#4f5d75" font-size="16" font-family="Segoe UI, Arial, sans-serif">Calculation breakdown</text>
  <rect x="110" y="838" width="1380" height="88" rx="28" fill="#fffaf2" stroke="#e3dacd"/>
  <text x="150" y="876" fill="#8d3f18" font-size="18" font-family="Segoe UI, Arial, sans-serif" letter-spacing="4">WORLD COMPARISON</text>
  <text x="150" y="910" fill="#14213d" font-size="28" font-family="Segoe UI, Arial, sans-serif" font-weight="700">Comparison table: HS code, confidence, duty, landed cost, risk, recommendation, composite score</text>
</svg>
